<?xml version="1.0" standalone="no"?>
<!-- Generator: Adobe Fireworks 10, Export SVG Extension by Aaron Beall (http://fireworks.abeall.com) . Version: 0.6.1  -->
<!DOCTYPE svg PUBLIC "-//W3C//DTD SVG 1.1//EN" "http://www.w3.org/Graphics/SVG/1.1/DTD/svg11.dtd">
<svg id="mgui.fw-Page%201" viewBox="0 0 100 100" style="background-color:#ffffff" version="1.1"
	xmlns="http://www.w3.org/2000/svg" xmlns:xlink="http://www.w3.org/1999/xlink" xml:space="preserve"
	x="0px" y="0px" width="100px" height="100px"
>
	<defs>
		<linearGradient id="gradient1" x1="0%" y1="0%" x2="99.8334%" y2="99.5%">
			<stop stop-color="#0084ff" stop-opacity="1" offset="0%"/>
			<stop stop-color="#0071da" stop-opacity="1" offset="100%"/>
		</linearGradient>
	</defs>
	<g id="Layer%201">
		<path d="M 16 0 C 7.1633 0 0 7.1633 0 16 L 0 84 C 0 92.8367 7.1633 100 16 100 L 98 100 C 99.1046 100 100 99.1046 100 98 L 100 16 C 100 7.1633 92.8367 0 84 0 L 16 0 Z" fill="url(#gradient1)"/>
		<g>
			<path d="M 40.086 82.9375 L 42.914 82.9375 L 42.914 63.0705 L 38.7078 63.0705 C 36.4631 68.7824 33.4126 77.3284 32.9234 79.3922 L 32.8946 79.3922 C 32.2039 76.7471 29.6427 68.9568 27.5131 63.0705 L 23.156 63.0705 L 23.156 83.0798 L 25.844 83.0798 L 25.844 75.1483 C 25.844 71.6892 25.788 67.2709 25.62 64.9455 L 25.732 64.9455 C 26.621 68.4917 29.729 77.8226 31.3982 83.0798 L 34.017 83.0798 C 36.2329 76.718 39.2546 68.4045 40.114 64.9745 L 40.226 64.9745 C 40.142 67.1255 40.086 70.9625 40.086 74.6542 L 40.086 82.9375 L 40.086 82.9375 Z" fill="#ffffff"/>
			<path d="M 58.844 72.5343 C 58.844 70.8021 58.872 68.8999 58.872 68.0425 L 56.268 68.0425 C 56.24 68.7831 56.184 69.5379 56.156 70.0411 C 55.8578 69.3092 54.7665 68.2805 52.1746 68.2805 C 48.788 68.2805 46.072 70.804 46.072 75.8714 C 46.072 80.4136 48.424 82.9375 51.9018 82.9375 C 54.1663 82.9375 55.4213 82.2148 56.156 80.9698 L 56.156 81.8535 C 56.156 84.8333 55.4486 86.8445 52.4202 86.8445 C 50.6741 86.8445 49.5555 86.0113 49.1735 84.5172 L 46.38 84.5172 C 46.632 86.4423 47.892 88.7195 52.2838 88.7195 C 56.996 88.7195 58.844 86.2986 58.844 81.8987 L 58.844 72.5343 L 58.844 72.5343 ZM 48.928 75.7478 C 48.928 72.4108 50.2376 70.1555 52.6384 70.1555 C 55.5031 70.1555 56.24 72.1945 56.24 75.5625 C 56.24 78.8996 55.4213 81.0625 52.5566 81.0625 C 50.374 81.0625 48.928 78.9613 48.928 75.7478 L 48.928 75.7478 Z" fill="#ffffff"/>
			<path d="M 64.0625 63.0625 L 64.0625 75.3469 C 64.0625 81.1486 66.7937 82.7095 70.9251 82.7095 C 75.266 82.7095 77.9375 81.3486 77.9375 75.0897 L 77.9375 63.0625 L 77.0625 63.0625 L 77.0625 75.1754 C 77.0625 80.4341 74.4877 81.8345 70.9849 81.8345 C 68.051 81.8345 64.9375 80.4627 64.9375 75.1754 L 64.9375 63.0625 L 64.0625 63.0625 L 64.0625 63.0625 Z" fill="#ffffff"/>
			<path d="M 84.0625 63.0625 L 84.0625 82.9375 L 84.9375 82.9375 L 84.9375 63.0625 L 84.0625 63.0625 L 84.0625 63.0625 Z" fill="#ffffff"/>
		</g>
	</g>
</svg>