<?xml version="1.0" encoding="utf-8"?>
<!-- Generator: Adobe Illustrator 18.1.1, SVG Export Plug-In . SVG Version: 6.00 Build 0)  -->
<!DOCTYPE svg PUBLIC "-//W3C//DTD SVG 1.1//EN" "http://www.w3.org/Graphics/SVG/1.1/DTD/svg11.dtd">
<svg version="1.1" id="Layer_1" xmlns="http://www.w3.org/2000/svg" xmlns:xlink="http://www.w3.org/1999/xlink" x="0px" y="0px"
	 viewBox="0 0 512 512" style="enable-background:new 0 0 512 512;" xml:space="preserve">
<style type="text/css">
	.st0{opacity:0.1;}
</style>
<path class="st0" d="M512,256c0,22.2-19.6,41.5-25.1,61.9c-5.6,21.1,1.5,47.6-9.2,66.1c-10.9,18.8-37.5,25.8-52.7,41
	c-15.2,15.2-22.2,41.9-41,52.7c-18.5,10.7-45,3.5-66.1,9.2c-20.4,5.5-39.7,25.1-61.9,25.1c-22.2,0-41.4-19.6-61.9-25.1
	c-21.1-5.7-47.6,1.5-66.1-9.2c-18.8-10.9-25.8-37.5-41-52.7c-15.2-15.2-41.9-22.2-52.7-41c-10.7-18.5-3.5-45-9.2-66.1
	C19.6,297.4,0,278.2,0,256c0-22.2,19.6-41.4,25.1-61.9c5.7-21.2-1.5-47.6,9.2-66.1c10.9-18.8,37.5-25.7,52.7-41
	c15.2-15.2,22.2-41.9,41-52.7c18.5-10.7,45-3.5,66.1-9.2C214.6,19.6,233.8,0,256,0c22.2,0,41.4,19.6,61.9,25.1
	c21.1,5.6,47.6-1.5,66.1,9.2c18.8,10.9,25.7,37.5,41,52.7c15.2,15.2,41.9,22.2,52.7,41c10.7,18.5,3.5,45,9.2,66.1
	C492.4,214.5,512,233.8,512,256z"/>
<g>
</g>
<g>
</g>
<g>
</g>
<g>
</g>
<g>
</g>
<g>
</g>
</svg>
